<?xml version="1.0" encoding="UTF-8"?>
<svg width="25px" height="25px" viewBox="0 0 25 25" version="1.1" xmlns="http://www.w3.org/2000/svg" xmlns:xlink="http://www.w3.org/1999/xlink">
    <!-- Generator: Sketch 51.2 (57519) - http://www.bohemiancoding.com/sketch -->
    <title>icons/facebook</title>
    <desc>Created with Sketch.</desc>
    <defs></defs>
    <g id="icons/facebook" stroke="none" stroke-width="1" fill="none" fill-rule="evenodd">
        <path d="M23.6202387,0 L1.37976125,0 C0.617660944,0 0,0.617660944 0,1.37976125 L0,23.6202387 C0,24.3822454 0.617660944,25.0000937 1.37976125,25.0000937 L13.353335,25.0000937 L13.353335,15.318722 L10.0953,15.318722 L10.0953,11.5456886 L13.353335,11.5456886 L13.353335,8.76321686 C13.353335,5.53421958 15.3254663,3.77593726 18.2060106,3.77593726 C19.5858655,3.77593726 20.7717296,3.87859974 21.1172788,3.92449812 L21.1172788,7.2990588 L19.1194819,7.2999955 C17.5529424,7.2999955 17.2495448,8.04439216 17.2495448,9.1367734 L17.2495448,11.5456886 L20.9857659,11.5456886 L20.4993368,15.318722 L17.2495448,15.318722 L17.2495448,25.0000937 L23.6202387,25.0000937 C24.3822454,25.0000937 25,24.3822454 25,23.6202387 L25,1.37976125 C25,0.617660944 24.3822454,0 23.6202387,0" id="Fill-1" fill="#C9AA85"></path>
    </g>
</svg>