<?xml version="1.0" encoding="UTF-8"?>
<svg width="742px" height="679px" viewBox="0 0 742 679" version="1.1" xmlns="http://www.w3.org/2000/svg" xmlns:xlink="http://www.w3.org/1999/xlink">
    <!-- Generator: Sketch 51.2 (57519) - http://www.bohemiancoding.com/sketch -->
    <title>icons/logo</title>
    <desc>Created with Sketch.</desc>
    <defs></defs>
    <g id="icons/logo" stroke="none" stroke-width="1" fill="none" fill-rule="evenodd">
        <path d="M709.4658,339.8123 C709.4658,152.6913 557.7748,1.0003 370.6538,1.0003 C183.5328,1.0003 31.8418,152.6913 31.8418,339.8123 C31.8418,526.9323 183.5328,678.6243 370.6538,678.6243 C557.7748,678.6243 709.4658,526.9323 709.4658,339.8123" id="Fill-1" fill="#FFFFFF"></path>
        <path d="M401.3689,494.6072 L378.7689,494.6072 L378.7689,413.1322 L351.1159,413.1322 L351.1159,611.4662 L378.7689,611.4662 L378.7689,520.4762 L401.3689,520.4762 L401.3689,611.4662 L429.0219,611.4662 L429.0219,413.1322 L401.3689,413.1322 L401.3689,494.6072 Z M93.6929,511.8522 L74.0669,413.1322 L41.3589,413.1322 L41.3589,611.4662 L64.5519,611.4662 L64.5519,471.4142 L87.7449,611.4662 L99.6409,611.4662 L122.8339,471.4142 L122.8339,611.4662 L146.6219,611.4662 L146.6219,413.1322 L113.3189,413.1322 L93.6929,511.8522 Z M256.8339,439.0022 L282.7029,439.0022 L282.7029,611.4662 L310.3579,611.4662 L310.3579,439.0022 L337.4159,439.0022 L337.4159,413.1322 L256.8339,413.1322 L256.8339,439.0022 Z M255.0459,369.0672 L255.0459,306.9822 C255.0459,301.1572 256.8859,298.7022 261.0239,298.7022 C265.3159,298.7022 267.0019,301.1572 267.0019,306.9822 L267.0019,369.0672 C267.0019,374.8912 265.1619,377.3472 261.0239,377.3472 C256.7329,377.3472 255.0459,374.8912 255.0459,369.0672 Z M278.0409,382.2512 C280.7999,377.8032 281.2599,375.3522 281.2599,363.0882 L281.2599,312.8062 C281.2599,300.6972 280.7999,298.0922 278.0409,293.6452 C274.6679,288.5872 268.2299,285.3652 261.0239,285.3652 C253.8189,285.3652 247.3799,288.5872 244.0079,293.6452 C241.2489,298.0922 240.7879,300.6972 240.7879,312.8062 L240.7879,363.0882 C240.7879,375.1982 241.2489,377.8032 244.0079,382.2512 C247.3799,387.4642 253.8189,390.6842 261.0239,390.6842 C268.2299,390.6842 274.6679,387.4642 278.0409,382.2512 Z M215.9259,572.5142 C215.9259,583.8122 212.3569,588.5692 204.3289,588.5692 C196.0029,588.5692 192.7309,583.8122 192.7309,572.5142 L192.7309,452.0872 C192.7309,440.7872 196.2999,436.0302 204.3289,436.0302 C212.6539,436.0302 215.9259,440.7872 215.9259,452.0872 L215.9259,572.5142 Z M204.3289,410.1602 C190.3539,410.1602 177.8649,416.4042 171.3239,426.2142 C165.9709,434.8392 165.0779,439.8962 165.0779,463.3852 L165.0779,560.9192 C165.0779,584.4072 165.9709,589.4642 171.3239,598.0852 C177.8649,608.1952 190.3539,614.4392 204.3289,614.4392 C218.3049,614.4392 230.7919,608.1952 237.3349,598.0852 C242.6879,589.4642 243.5789,584.7072 243.5789,560.9192 L243.5789,463.3852 C243.5789,439.8962 242.6879,434.8392 237.3349,426.2142 C230.7919,416.4042 218.3049,410.1602 204.3289,410.1602 Z M452.6979,363.2432 L452.6979,286.8992 L438.4419,286.8992 L438.4419,369.0672 C438.4419,374.8912 436.7549,377.3472 432.4639,377.3472 C428.3239,377.3472 426.4859,374.8912 426.4859,369.0672 L426.4859,286.8992 L412.2279,286.8992 L412.2279,363.2432 C412.2279,375.3522 412.6889,377.9572 415.4469,382.4042 C418.8199,387.4642 425.2579,390.6842 432.4639,390.6842 C439.6679,390.6842 446.1079,387.4642 449.4789,382.4042 C452.2389,377.9572 452.6979,375.3522 452.6979,363.2432 Z M713.6549,68.1572 L713.6549,149.6322 L691.0549,149.6322 L691.0549,68.1572 L663.4019,68.1572 L663.4019,266.4912 L691.0549,266.4912 L691.0549,175.5012 L713.6549,175.5012 L713.6549,266.4912 L741.3079,266.4912 L741.3079,68.1572 L713.6549,68.1572 Z M541.0559,266.4912 L555.9249,266.4912 L555.9249,165.6902 L516.0799,165.6902 L516.0799,189.1832 L528.2719,189.1832 L528.2719,217.7292 C528.2719,230.5112 527.9739,233.4872 526.4879,236.7592 C524.7019,241.2172 520.8379,243.8942 516.3779,243.8942 C512.2149,243.8942 508.9429,241.8122 506.8619,237.6502 C505.3739,234.3782 505.0769,232.2972 505.0769,217.7292 L505.0769,112.7612 C505.0769,95.5162 507.4569,91.0542 516.3779,91.0542 C526.1899,91.0542 528.8649,97.0022 528.8649,119.0052 C528.8649,123.4672 528.8649,126.1432 528.2719,132.6832 L555.9249,132.6832 C556.5199,124.9532 556.5199,121.0862 556.5199,116.9232 C556.5199,82.4302 543.1379,65.1852 516.6749,65.1852 C490.5079,65.1852 477.4239,81.2432 477.4239,112.7612 L477.4239,217.7292 C477.4239,235.5692 478.6139,243.5982 483.0739,251.9232 C488.7229,262.6282 499.7259,269.4672 511.3219,269.4672 C520.8379,269.4672 529.1619,264.1142 536.8939,252.8142 L541.0559,266.4912 Z M675.5689,496.9882 C657.1319,469.3332 655.9429,466.6572 655.9429,454.4642 C655.9429,442.5732 660.1059,436.0302 667.5399,436.0302 C673.7839,436.0302 678.2459,440.4882 679.1369,448.5172 C679.7319,452.6792 680.0289,456.2512 680.0289,466.3572 L707.0869,463.6842 C707.0869,447.3272 707.0869,446.4352 705.6009,439.0022 C701.7359,420.8662 688.0569,410.1602 669.3239,410.1602 C644.3469,410.1602 628.5859,426.8102 628.5859,452.9792 C628.5859,470.5232 634.2359,484.2012 651.1859,509.7712 L664.8639,529.9922 C678.5409,548.1312 681.8129,555.8612 681.8129,568.9442 C681.8129,581.7302 677.6499,588.5692 669.3239,588.5692 C658.6199,588.5692 655.0509,582.0302 655.0509,561.5092 L655.0509,552.8892 L627.6949,554.0802 C627.3979,558.8362 627.3979,560.6192 627.3979,564.7812 C627.3979,582.0302 629.4789,590.3552 636.0199,599.2752 C643.7519,609.6812 654.1599,614.4392 669.0259,614.4392 C694.8959,614.4392 709.4659,599.5712 709.4659,573.1102 C709.4659,556.1612 702.3289,535.9402 689.5449,517.2052 L675.5689,496.9882 Z M649.6999,68.1572 L569.1179,68.1572 L569.1179,94.0302 L594.9869,94.0302 L594.9869,266.4912 L622.6419,266.4912 L622.6419,94.0302 L649.6999,94.0302 L649.6999,68.1572 Z M580.9289,492.2302 C578.2529,497.2842 573.1979,499.3652 564.2779,499.3652 L560.4109,499.3652 L560.4109,439.0022 L564.2779,439.0022 C579.7389,439.0022 583.6059,444.0582 583.6059,465.4662 C583.6059,483.6062 583.0109,488.3642 580.9289,492.2302 Z M610.6639,468.4422 C610.6639,449.7082 607.3939,436.3252 600.2569,427.1092 C592.2279,416.7002 582.1179,413.1322 559.8169,413.1322 L532.7579,413.1322 L532.7579,611.4662 L560.4109,611.4662 L560.4109,527.3152 C564.5749,527.0202 565.4659,527.0202 570.2239,526.1252 L586.2819,611.4662 L616.0159,611.4662 L596.6879,516.6102 C607.9869,502.0422 610.6639,493.1212 610.6639,468.4422 Z M475.5519,520.4762 L502.9089,520.4762 L502.9089,494.6072 L475.5519,494.6072 L475.5519,439.0022 L514.8039,439.0022 L514.8039,413.1322 L447.8989,413.1322 L447.8989,611.4662 L517.1819,611.4662 L517.1819,585.5972 L475.5519,585.5972 L475.5519,520.4762 Z M82.0679,228.1342 C82.0679,211.1852 74.9319,190.9642 62.1469,172.2332 L48.1719,152.0122 C29.7339,124.3572 28.5459,121.6812 28.5459,109.4892 C28.5459,97.5972 32.7079,91.0542 40.1419,91.0542 C46.3859,91.0542 50.8479,95.5162 51.7389,103.5452 C52.3339,107.7082 52.6319,111.2752 52.6319,121.3852 L79.6899,118.7092 C79.6899,102.3552 79.6899,101.4612 78.2029,94.0302 C74.3389,75.8902 60.6589,65.1852 41.9259,65.1852 C16.9499,65.1852 1.1889,81.8382 1.1889,108.0032 C1.1889,125.5482 6.8389,139.2262 23.7879,164.7992 L37.4659,185.0162 C51.1439,203.1562 54.4149,210.8862 54.4149,223.9722 C54.4149,236.7592 50.2529,243.5982 41.9259,243.5982 C31.2219,243.5982 27.6529,237.0552 27.6529,216.5382 L27.6529,207.9142 L0.2979,209.1042 C-0.0001,213.8622 -0.0001,215.6442 -0.0001,219.8102 C-0.0001,237.0552 2.0809,245.3792 8.6229,254.3002 C16.3539,264.7102 26.7619,269.4672 41.6289,269.4672 C67.4979,269.4672 82.0679,254.5992 82.0679,228.1342 Z M375.2939,306.9822 C375.2939,301.1572 377.1329,298.7022 381.2719,298.7022 C385.5629,298.7022 387.2499,301.1572 387.2499,306.9822 L387.2499,369.0672 C387.2499,374.8912 385.4099,377.3472 381.2719,377.3472 C376.9799,377.3472 375.2939,374.8912 375.2939,369.0672 L375.2939,306.9822 Z M381.2719,390.6842 C388.4769,390.6842 394.9159,387.4642 398.2879,382.2512 C401.0469,377.8032 401.5069,375.3522 401.5069,363.0882 L401.5069,312.8062 C401.5069,300.6972 401.0469,298.0922 398.2879,293.6452 C394.9159,288.5872 388.4769,285.3652 381.2719,285.3652 C374.0659,285.3652 367.6279,288.5872 364.2549,293.6452 C361.4959,298.0922 361.0359,300.6972 361.0359,312.8062 L361.0359,363.0882 C361.0359,375.1982 361.4959,377.8032 364.2549,382.2512 C367.6279,387.4642 374.0659,390.6842 381.2719,390.6842 Z M326.5349,300.2362 L326.5349,286.8992 L292.0429,286.8992 L292.0429,389.1492 L306.2999,389.1492 L306.2999,342.2392 L320.4029,342.2392 L320.4029,328.9022 L306.2999,328.9022 L306.2999,300.2362 L326.5349,300.2362 Z M477.9869,300.2362 L479.9779,300.2362 C487.9499,300.2362 489.9429,302.8422 489.9429,313.8802 C489.9429,323.2312 489.6359,325.6832 488.5639,327.6782 C487.1839,330.2842 484.5789,331.3542 479.9779,331.3542 L477.9869,331.3542 L477.9869,300.2362 Z M477.9869,345.7652 C480.1319,345.6122 480.5919,345.6122 483.0439,345.1512 L491.3219,389.1492 L506.6529,389.1492 L496.6879,340.2482 C502.5149,332.7352 503.8939,328.1342 503.8939,315.4122 C503.8939,305.7542 502.2079,298.8552 498.5279,294.1052 C494.3899,288.7372 489.1769,286.8992 477.6799,286.8992 L463.7289,286.8992 L463.7289,389.1492 L477.9869,389.1492 L477.9869,345.7652 Z M398.6029,162.4192 L431.3129,266.4912 L458.9659,266.4912 L458.9659,68.1572 L431.3129,68.1572 L431.3129,185.0162 L394.7379,68.1572 L370.9499,68.1572 L370.9499,266.4912 L398.6029,266.4912 L398.6029,162.4192 Z M355.3739,240.6222 L313.7439,240.6222 L313.7439,175.5012 L341.1009,175.5012 L341.1009,149.6322 L313.7439,149.6322 L313.7439,94.0302 L352.9949,94.0302 L352.9949,68.1572 L286.0909,68.1572 L286.0909,266.4912 L355.3739,266.4912 L355.3739,240.6222 Z M213.8109,94.0302 L217.6779,94.0302 C233.1389,94.0302 237.0059,99.0842 237.0059,120.4912 C237.0059,138.6302 236.4109,143.3882 234.3299,147.2552 C231.6529,152.3082 226.5979,154.3892 217.6779,154.3892 L213.8109,154.3892 L213.8109,94.0302 Z M213.8109,182.3402 C217.9749,182.0452 218.8659,182.0452 223.6239,181.1532 L239.6819,266.4912 L269.4169,266.4912 L250.0879,171.6382 C261.3869,157.0662 264.0639,148.1462 264.0639,123.4672 C264.0639,104.7322 260.7939,91.3542 253.6579,82.1342 C245.6289,71.7282 235.5179,68.1572 213.2179,68.1572 L186.1579,68.1572 L186.1579,266.4912 L213.8109,266.4912 L213.8109,182.3402 Z M117.7429,266.4912 L145.3979,266.4912 L145.3979,94.0302 L172.4559,94.0302 L172.4559,68.1572 L91.8739,68.1572 L91.8739,94.0302 L117.7429,94.0302 L117.7429,266.4912 Z" id="Fill-4" fill="#222222"></path>
    </g>
</svg>