<?xml version="1.0" encoding="UTF-8"?>
<svg id="Layer_1" data-name="Layer 1" xmlns="http://www.w3.org/2000/svg" width="1000" height="1000" viewBox="0 0 1000 1000">
  <defs>
    <style>
      .cls-1, .cls-2 {
        stroke-width: 0px;
      }

      .cls-2 {
        fill: #fff;
      }
    </style>
  </defs>
  <circle class="cls-2" cx="499.26" cy="500" r="282.94"/>
  <path class="cls-1" d="m316.61,470.07c0-13.24-2.31-22.7-7.36-29.22-5.68-7.36-12.82-9.88-28.59-9.88h-19.13v140.22h19.55v-59.49c2.94-.21,3.57-.21,6.94-.84l11.35,60.33h21.02l-13.66-67.06c7.99-10.3,9.88-16.61,9.88-34.06Zm-21.02,16.82c-1.89,3.57-5.47,5.05-11.77,5.05h-2.73v-42.67h2.73c10.93,0,13.67,3.57,13.67,18.71,0,12.82-.42,16.19-1.89,18.92Zm-91.61,84.3h19.55v-64.33h19.34v-18.29h-19.34v-39.31h27.75v-18.29h-47.3v140.22Zm-55.2-140.22l-19.13,140.22h18.92l3.36-31.53h17.66l3.57,31.53h19.13l-18.29-140.22h-25.23Zm5.26,90.4l6.73-64.96,6.73,64.96h-13.45Zm620.62,22.28c0,7.99-2.31,11.35-8.2,11.35s-8.2-3.36-8.2-11.35v-112.68h-19.55v104.69c0,16.61.63,20.18,4.41,26.28,4.63,6.94,13.45,11.35,23.33,11.35s18.71-4.42,23.34-11.35c3.78-6.1,4.41-9.67,4.41-26.28v-104.69h-19.55v112.68Zm-116.46-114.78c-9.88,0-18.71,4.41-23.33,11.35-3.78,6.1-4.42,9.67-4.42,26.28v68.95c0,16.61.63,20.18,4.42,26.28,4.62,7.15,13.45,11.56,23.33,11.56s18.71-4.42,23.33-11.56c3.78-6.1,4.41-9.46,4.41-26.28v-68.95c0-16.61-.63-20.18-4.41-26.28-4.63-6.94-13.45-11.35-23.33-11.35Zm8.2,114.78c0,7.99-2.52,11.35-8.2,11.35s-8.2-3.36-8.2-11.35v-85.14c0-7.99,2.52-11.35,8.2-11.35s8.2,3.36,8.2,11.35v85.14Zm-73.91-112.68h-19.55v140.22h47.3v-18.29h-27.75v-121.93Zm256.01,47.3l17.66-47.3h-19.97l-19.13,52.77v-52.77h-19.55v140.22h19.55v-43.31l8.41-22.92,14.51,66.22h20.39l-21.86-92.92Zm-490.62-49.4c-9.88,0-18.71,4.41-23.33,11.35-3.78,6.1-4.42,9.67-4.42,26.28v68.95c0,16.61.63,20.18,4.42,26.28,4.62,7.15,13.45,11.56,23.33,11.56s18.71-4.42,23.33-11.56c3.78-6.1,4.41-9.46,4.41-26.28v-68.95c0-16.61-.63-20.18-4.41-26.28-4.63-6.94-13.45-11.35-23.33-11.35Zm8.2,114.78c0,7.99-2.52,11.35-8.2,11.35s-8.2-3.36-8.2-11.35v-85.14c0-7.99,2.52-11.35,8.2-11.35s8.2,3.36,8.2,11.35v85.14Zm166.15-114.78c-9.88,0-18.71,4.41-23.33,11.35-3.78,6.1-4.42,9.67-4.42,26.28v68.95c0,16.61.63,20.18,4.42,26.28,4.62,7.15,13.45,11.56,23.33,11.56s18.71-4.42,23.33-11.56c3.78-6.1,4.41-9.46,4.41-26.28v-68.95c0-16.61-.63-20.18-4.41-26.28-4.63-6.94-13.45-11.35-23.33-11.35Zm8.2,114.78c0,7.99-2.52,11.35-8.2,11.35s-8.2-3.36-8.2-11.35v-85.14c0-7.99,2.52-11.35,8.2-11.35s8.2,3.36,8.2,11.35v85.14Zm-71.13-53.4c-13.03-19.55-13.88-21.44-13.88-30.06s2.94-13.03,8.2-13.03c4.41,0,7.57,3.15,8.2,8.83.42,2.94.63,5.46.63,12.61l19.13-1.89c0-11.56,0-12.19-1.05-17.45-2.73-12.82-12.4-20.39-25.65-20.39-17.66,0-28.8,11.77-28.8,30.27,0,12.4,3.99,22.07,15.98,40.15l9.67,14.29c9.67,12.82,11.98,18.29,11.98,27.54s-2.94,13.88-8.83,13.88c-7.57,0-10.09-4.63-10.09-19.13v-6.1l-19.34.84c-.21,3.36-.21,4.62-.21,7.57,0,12.19,1.47,18.08,6.1,24.39,5.47,7.36,12.82,10.72,23.33,10.72,18.29,0,28.59-10.51,28.59-29.22,0-11.98-5.05-26.28-14.08-39.52l-9.88-14.3Z"/>
</svg>