<?xml version="1.0" encoding="UTF-8"?>
<svg width="702px" height="703px" viewBox="0 0 702 703" version="1.1" xmlns="http://www.w3.org/2000/svg" xmlns:xlink="http://www.w3.org/1999/xlink">
    <!-- Generator: Sketch 51.2 (57519) - http://www.bohemiancoding.com/sketch -->
    <title>icons/logo-footer</title>
    <desc>Created with Sketch.</desc>
    <defs></defs>
    <g id="icons/logo-footer" stroke="none" stroke-width="1" fill="none" fill-rule="evenodd">
        <path d="M701.5652,351.7825 C701.5652,158.0505 544.5142,0.9995 350.7822,0.9995 C157.0502,0.9995 0.0002,158.0505 0.0002,351.7825 C0.0002,545.5135 157.0502,702.5645 350.7822,702.5645 C544.5142,702.5645 701.5652,545.5135 701.5652,351.7825" id="Fill-1" fill="#C9AA85"></path>
        <path d="M107.3489,459.2034 L107.3489,482.0294 C107.3489,536.3294 116.7949,553.6464 145.1239,553.6464 C167.1619,553.6464 178.1789,535.5464 178.1789,501.7044 C178.1789,467.0694 169.5199,446.6114 133.3199,398.6024 L97.1199,345.0954 C52.2619,277.4114 37.3069,241.2114 37.3069,194.7774 C37.3069,125.5274 79.0199,81.4514 145.1239,81.4514 C194.7029,81.4514 230.9089,109.7854 241.1379,157.7944 C245.0709,177.4594 245.0709,179.8274 245.0709,223.1114 L173.4579,230.1944 C173.4579,203.4354 172.6699,193.9944 171.0949,182.9774 C168.7319,161.7274 156.9289,149.9184 140.4039,149.9184 C120.7279,149.9184 109.7119,167.2354 109.7119,198.7104 C109.7119,230.9774 112.8569,238.0604 161.6539,311.2534 L198.6409,364.7704 C232.4789,414.3454 251.3669,467.8624 251.3669,512.7214 C251.3669,582.7634 212.8079,622.1134 144.3369,622.1134 C104.9909,622.1134 77.4449,609.5214 56.9819,581.9704 C39.6699,558.3624 34.1609,536.3294 34.1609,490.6874 C34.1609,479.6614 34.1609,474.9454 34.9489,462.3534 L107.3489,459.2034 Z" id="Fill-4" fill="#FFFFFF"></path>
        <path d="M349.696,285.178 C349.696,269.763 345.233,263.274 333.875,263.274 C322.918,263.274 318.053,269.763 318.053,285.178 L318.053,449.494 C318.053,464.92 322.516,471.408 333.875,471.408 C344.827,471.408 349.696,464.92 349.696,449.494 L349.696,285.178 Z M387.431,433.673 C387.431,466.128 386.213,472.627 378.911,484.387 C369.986,498.188 352.946,506.707 333.875,506.707 C314.804,506.707 297.764,498.188 288.838,484.387 C281.536,472.627 280.318,465.733 280.318,433.673 L280.318,300.603 C280.318,268.544 281.536,261.649 288.838,249.88 C297.764,236.495 314.804,227.975 333.875,227.975 C352.946,227.975 369.986,236.495 378.911,249.88 C386.213,261.649 387.431,268.544 387.431,300.603 L387.431,433.673 Z" id="Fill-6" fill="#FFFFFF"></path>
        <polygon id="Fill-8" fill="#FFFFFF" points="601.7517 104.9114 684.6567 104.9114 684.6567 598.6434 625.4387 598.6434 625.4387 249.9974 567.6977 598.6434 538.0937 598.6434 480.3527 249.9974 480.3527 598.6434 422.6157 598.6434 422.6157 104.9114 504.0397 104.9114 552.8957 350.6734"></polygon>
    </g>
</svg>